<svg width="31" height="31" viewBox="0 0 31 31" fill="none" xmlns="http://www.w3.org/2000/svg">
<path fill-rule="evenodd" clip-rule="evenodd" d="M8.43967 11.4395C8.72096 11.1583 9.10242 11.0003 9.50017 11.0003C9.89791 11.0003 10.2794 11.1583 10.5607 11.4395L15.5002 16.379L20.4397 11.4395C20.578 11.2962 20.7436 11.182 20.9266 11.1033C21.1096 11.0247 21.3064 10.9834 21.5056 10.9816C21.7047 10.9799 21.9023 11.0178 22.0866 11.0933C22.2709 11.1687 22.4384 11.2801 22.5793 11.4209C22.7201 11.5617 22.8315 11.7292 22.9069 11.9136C22.9823 12.0979 23.0203 12.2954 23.0185 12.4946C23.0168 12.6938 22.9754 12.8906 22.8968 13.0736C22.8182 13.2566 22.7039 13.4221 22.5607 13.5605L16.5607 19.5605C16.2794 19.8417 15.8979 19.9997 15.5002 19.9997C15.1024 19.9997 14.721 19.8417 14.4397 19.5605L8.43967 13.5605C8.15846 13.2792 8.00049 12.8977 8.00049 12.5C8.00049 12.1023 8.15846 11.7208 8.43967 11.4395Z" fill="black"/>
</svg>
