<svg width="30" height="30" viewBox="0 0 30 30" fill="none" xmlns="http://www.w3.org/2000/svg">
<path d="M26.3 15.1625C26.475 15.1625 26.6375 15.2375 26.775 15.375L28.375 16.975C28.65 17.2375 28.65 17.675 28.375 17.9375L27.125 19.1875L24.5625 16.625L25.8125 15.375C25.95 15.2375 26.125 15.1625 26.3 15.1625ZM23.8375 17.35L26.4 19.9125L18.825 27.5H16.25V24.925L23.8375 17.35ZM13.75 23.75L11.25 26.25H6.25C4.875 26.25 3.75 25.125 3.75 23.75V6.25C3.75 4.875 4.875 3.75 6.25 3.75H11.475C12 2.3 13.375 1.25 15 1.25C16.625 1.25 18 2.3 18.525 3.75H23.75C25.125 3.75 26.25 4.875 26.25 6.25V11.25L23.75 13.75V6.25H21.25V8.75H8.75V6.25H6.25V23.75H13.75ZM15 3.75C14.3125 3.75 13.75 4.3125 13.75 5C13.75 5.6875 14.3125 6.25 15 6.25C15.6875 6.25 16.25 5.6875 16.25 5C16.25 4.3125 15.6875 3.75 15 3.75Z" fill="black"/>
</svg>
