<svg width="30" height="30" viewBox="0 0 30 30" fill="none" xmlns="http://www.w3.org/2000/svg">
<path d="M21.2875 13.7875C21.3796 13.7017 21.4535 13.5982 21.5047 13.4832C21.556 13.3682 21.5835 13.244 21.5857 13.1182C21.588 12.9923 21.5648 12.8672 21.5177 12.7505C21.4705 12.6338 21.4003 12.5277 21.3113 12.4387C21.2223 12.3497 21.1162 12.2795 20.9995 12.2323C20.8828 12.1852 20.7577 12.162 20.6318 12.1643C20.506 12.1665 20.3818 12.194 20.2668 12.2453C20.1518 12.2965 20.0483 12.3704 19.9625 12.4625L13.75 18.675L11.2875 16.2125C11.1098 16.0469 10.8747 15.9567 10.6318 15.961C10.389 15.9653 10.1572 16.0637 9.98547 16.2355C9.81371 16.4072 9.71532 16.639 9.71103 16.8818C9.70675 17.1247 9.7969 17.3598 9.9625 17.5375L13.0875 20.6625C13.2633 20.8381 13.5016 20.9367 13.75 20.9367C13.9984 20.9367 14.2367 20.8381 14.4125 20.6625L21.2875 13.7875ZM19.9925 5.105C19.9401 4.3969 19.6218 3.73483 19.1016 3.25165C18.5813 2.76847 17.8975 2.49996 17.1875 2.5H12.8125C12.1207 2.50002 11.4532 2.75501 10.9376 3.21621C10.4219 3.67742 10.0944 4.31249 10.0175 5H7.8125C7.06658 5 6.35121 5.29632 5.82376 5.82376C5.29632 6.35121 5 7.06658 5 7.8125V24.6875C5 25.4334 5.29632 26.1488 5.82376 26.6762C6.35121 27.2037 7.06658 27.5 7.8125 27.5H22.1875C22.5568 27.5 22.9226 27.4273 23.2638 27.2859C23.605 27.1446 23.9151 26.9374 24.1762 26.6762C24.4374 26.4151 24.6446 26.105 24.7859 25.7638C24.9273 25.4226 25 25.0568 25 24.6875V7.8125C25 7.44316 24.9273 7.07743 24.7859 6.7362C24.6446 6.39497 24.4374 6.08493 24.1762 5.82376C23.9151 5.5626 23.605 5.35543 23.2638 5.21409C22.9226 5.07275 22.5568 5 22.1875 5H19.9825L19.9925 5.105ZM19.9925 5.12L20 5.3125C20 5.2475 19.9967 5.18333 19.9925 5.12ZM12.8125 8.125H17.1875C18.1625 8.125 19.0213 7.62875 19.5263 6.875H22.1875C22.4361 6.875 22.6746 6.97377 22.8504 7.14959C23.0262 7.3254 23.125 7.56386 23.125 7.8125V24.6875C23.125 24.9361 23.0262 25.1746 22.8504 25.3504C22.6746 25.5262 22.4361 25.625 22.1875 25.625H7.8125C7.56386 25.625 7.3254 25.5262 7.14959 25.3504C6.97377 25.1746 6.875 24.9361 6.875 24.6875V7.8125C6.875 7.56386 6.97377 7.3254 7.14959 7.14959C7.3254 6.97377 7.56386 6.875 7.8125 6.875H10.4737C10.9787 7.62875 11.8375 8.125 12.8125 8.125ZM12.8125 4.375H17.1875C17.4361 4.375 17.6746 4.47377 17.8504 4.64959C18.0262 4.8254 18.125 5.06386 18.125 5.3125C18.125 5.56114 18.0262 5.7996 17.8504 5.97541C17.6746 6.15123 17.4361 6.25 17.1875 6.25H12.8125C12.5639 6.25 12.3254 6.15123 12.1496 5.97541C11.9738 5.7996 11.875 5.56114 11.875 5.3125C11.875 5.06386 11.9738 4.8254 12.1496 4.64959C12.3254 4.47377 12.5639 4.375 12.8125 4.375Z" fill="black"/>
</svg>
