<svg width="30" height="30" viewBox="0 0 30 30" fill="none" xmlns="http://www.w3.org/2000/svg">
<path d="M23.75 17.5V21.25C23.75 21.9375 23.1875 22.5 22.5 22.5H21.25V17.5H23.75ZM8.75 17.5V22.5H7.5C6.8125 22.5 6.25 21.9375 6.25 21.25V17.5H8.75ZM15 1.25C12.0163 1.25 9.15483 2.43526 7.04505 4.54505C4.93526 6.65483 3.75 9.51631 3.75 12.5V21.25C3.75 23.325 5.425 25 7.5 25H11.25V15H6.25V12.5C6.25 7.6625 10.1625 3.75 15 3.75C19.8375 3.75 23.75 7.6625 23.75 12.5V15H18.75V25H22.5C24.575 25 26.25 23.325 26.25 21.25V12.5C26.25 9.51631 25.0647 6.65483 22.955 4.54505C20.8452 2.43526 17.9837 1.25 15 1.25Z" fill="black"/>
</svg>
