<svg width="16" height="16" viewBox="0 0 16 16" fill="none" xmlns="http://www.w3.org/2000/svg">
<path d="M12.172 2.33867C12.2634 2.37651 12.3415 2.44061 12.3965 2.52284C12.4514 2.60508 12.4807 2.70177 12.4807 2.80067V5.62933C12.4807 5.76194 12.428 5.88912 12.3343 5.98289C12.2405 6.07665 12.1133 6.12933 11.9807 6.12933H9.15204C9.05321 6.12925 8.95663 6.09987 8.87448 6.04493C8.79234 5.98998 8.72832 5.91192 8.69051 5.82062C8.65271 5.72931 8.6428 5.62884 8.66206 5.53191C8.68132 5.43498 8.72887 5.34592 8.7987 5.276L9.8667 4.20667C8.88567 3.79585 7.79653 3.72009 6.76807 3.99113C5.73961 4.26217 4.82926 4.86487 4.17812 5.70583C3.52698 6.54679 3.17141 7.57904 3.1665 8.6426C3.1616 9.70617 3.50764 10.7417 4.151 11.5886C4.79436 12.4355 5.69911 13.0466 6.72503 13.3271C7.75094 13.6076 8.84074 13.5419 9.82552 13.1401C10.8103 12.7384 11.6351 12.023 12.172 11.1049C12.7089 10.1868 12.928 9.11727 12.7954 8.062C12.7816 7.93183 12.8195 7.80147 12.9008 7.6989C12.9821 7.59633 13.1004 7.52974 13.2303 7.51342C13.3601 7.4971 13.4912 7.53235 13.5954 7.61161C13.6995 7.69087 13.7685 7.80782 13.7874 7.93733C13.9496 9.22811 13.6758 10.5361 13.0093 11.6534C12.3429 12.7706 11.322 13.633 10.1091 14.1035C8.89625 14.574 7.5609 14.6255 6.31537 14.2499C5.06983 13.8743 3.9856 13.0931 3.23503 12.0305C2.48446 10.9679 2.11063 9.6849 2.17296 8.38545C2.2353 7.08601 2.73022 5.84469 3.57906 4.85883C4.42789 3.87297 5.58192 3.19915 6.85769 2.94449C8.13346 2.68982 9.45775 2.86893 10.62 3.45333L11.6267 2.44667C11.6967 2.37685 11.7857 2.32933 11.8827 2.31011C11.9796 2.29089 12.0807 2.30082 12.172 2.33867Z" fill="black"/>
</svg>
