<svg width="30" height="30" viewBox="0 0 30 30" fill="none" xmlns="http://www.w3.org/2000/svg">
<path d="M15 10C16.3261 10 17.5979 10.5268 18.5356 11.4645C19.4733 12.4021 20 13.6739 20 15C20 16.3261 19.4733 17.5979 18.5356 18.5355C17.5979 19.4732 16.3261 20 15 20C13.674 20 12.4022 19.4732 11.4645 18.5355C10.5268 17.5979 10 16.3261 10 15C10 13.6739 10.5268 12.4021 11.4645 11.4645C12.4022 10.5268 13.674 10 15 10ZM15 12.5C14.337 12.5 13.7011 12.7634 13.2323 13.2322C12.7634 13.7011 12.5 14.337 12.5 15C12.5 15.663 12.7634 16.2989 13.2323 16.7678C13.7011 17.2366 14.337 17.5 15 17.5C15.6631 17.5 16.299 17.2366 16.7678 16.7678C17.2367 16.2989 17.5 15.663 17.5 15C17.5 14.337 17.2367 13.7011 16.7678 13.2322C16.299 12.7634 15.6631 12.5 15 12.5ZM12.5 27.5C12.1875 27.5 11.925 27.275 11.875 26.975L11.4125 23.6625C10.625 23.35 9.95005 22.925 9.30005 22.425L6.18755 23.6875C5.91255 23.7875 5.57505 23.6875 5.42505 23.4125L2.92505 19.0875C2.84854 18.9587 2.82157 18.8065 2.84918 18.6592C2.87679 18.512 2.95708 18.3798 3.07505 18.2875L5.71255 16.2125L5.62505 15L5.71255 13.75L3.07505 11.7125C2.95708 11.6202 2.87679 11.488 2.84918 11.3408C2.82157 11.1935 2.84854 11.0413 2.92505 10.9125L5.42505 6.5875C5.57505 6.3125 5.91255 6.2 6.18755 6.3125L9.30005 7.5625C9.95005 7.075 10.625 6.65 11.4125 6.3375L11.875 3.025C11.925 2.725 12.1875 2.5 12.5 2.5H17.5C17.8125 2.5 18.075 2.725 18.125 3.025L18.5875 6.3375C19.375 6.65 20.05 7.075 20.7 7.5625L23.8125 6.3125C24.0875 6.2 24.425 6.3125 24.5751 6.5875L27.0751 10.9125C27.2375 11.1875 27.1625 11.525 26.9251 11.7125L24.2875 13.75L24.375 15L24.2875 16.25L26.9251 18.2875C27.1625 18.475 27.2375 18.8125 27.0751 19.0875L24.5751 23.4125C24.425 23.6875 24.0875 23.8 23.8125 23.6875L20.7 22.4375C20.05 22.925 19.375 23.35 18.5875 23.6625L18.125 26.975C18.075 27.275 17.8125 27.5 17.5 27.5H12.5ZM14.0625 5L13.6 8.2625C12.1 8.575 10.775 9.375 9.81255 10.4875L6.80005 9.1875L5.86255 10.8125L8.50005 12.75C8.00005 14.2083 8.00005 15.7917 8.50005 17.25L5.85005 19.2L6.78755 20.825L9.82505 19.525C10.7875 20.625 12.1 21.425 13.5875 21.725L14.05 25H15.95L16.4125 21.7375C17.9 21.425 19.2125 20.625 20.175 19.525L23.2125 20.825L24.15 19.2L21.5 17.2625C22 15.8 22 14.2125 21.5 12.75L24.1375 10.8125L23.2 9.1875L20.1875 10.4875C19.2053 9.3504 17.873 8.57209 16.4 8.275L15.9375 5H14.0625Z" fill="black"/>
</svg>
