<svg width="24" height="24" viewBox="0 0 24 24" fill="none" xmlns="http://www.w3.org/2000/svg">
<path d="M12.4163 1.626C12.293 1.54377 12.1482 1.49989 12 1.49989C11.8518 1.49989 11.707 1.54377 11.5837 1.626C9.3975 3.084 6.51375 4.52025 2.92575 4.87875C2.74062 4.89717 2.56894 4.98374 2.44406 5.12165C2.31918 5.25955 2.25002 5.43895 2.25 5.625V12C2.25 14.91 3.843 17.3775 5.77575 19.1595C7.70475 20.9385 10.0785 22.1377 11.862 22.4722L12 22.4977L12.138 22.4722C13.9215 22.1377 16.2952 20.9385 18.2242 19.1595C20.157 17.3775 21.75 14.91 21.75 12V5.625C21.75 5.43907 21.6809 5.25977 21.5562 5.12188C21.4315 4.98399 21.26 4.89734 21.075 4.87875C17.4862 4.52025 14.6025 3.084 12.4163 1.626ZM3.75 12V6.291C7.122 5.829 9.8745 4.506 12 3.1455C14.1255 4.506 16.878 5.829 20.25 6.291V12C20.25 14.34 18.9638 16.437 17.2073 18.057C15.501 19.6305 13.452 20.6595 12 20.97C10.548 20.6587 8.499 19.6305 6.79275 18.057C5.03625 16.437 3.75 14.34 3.75 12ZM17.0303 9.53025C17.1669 9.3888 17.2425 9.19935 17.2408 9.0027C17.239 8.80605 17.1602 8.61794 17.0211 8.47889C16.8821 8.33983 16.6939 8.26095 16.4973 8.25924C16.3007 8.25753 16.1112 8.33313 15.9697 8.46975L10.5 13.9395L8.78025 12.2197C8.6388 12.0831 8.44935 12.0075 8.2527 12.0092C8.05605 12.011 7.86794 12.0898 7.72889 12.2289C7.58983 12.3679 7.51095 12.5561 7.50924 12.7527C7.50754 12.9493 7.58313 13.1388 7.71975 13.2802L9.96975 15.5302C10.1104 15.6709 10.3011 15.7498 10.5 15.7498C10.6989 15.7498 10.8896 15.6709 11.0302 15.5302L17.0303 9.53025Z" fill="black"/>
</svg>
