<svg width="30" height="30" viewBox="0 0 30 30" fill="none" xmlns="http://www.w3.org/2000/svg">
<path d="M25.3125 6.25C21.9837 6.25 18.74 5.07125 15.5625 2.6875C15.4002 2.56579 15.2028 2.5 15 2.5C14.7972 2.5 14.5998 2.56579 14.4375 2.6875C11.26 5.07125 8.01625 6.25 4.6875 6.25C4.43886 6.25 4.2004 6.34877 4.02459 6.52459C3.84877 6.7004 3.75 6.93886 3.75 7.1875V13.75C3.75 20.0012 7.4475 24.595 14.6562 27.435C14.8771 27.5221 15.1229 27.5221 15.3438 27.435C22.5525 24.595 26.25 20 26.25 13.75V7.1875C26.25 6.93886 26.1512 6.7004 25.9754 6.52459C25.7996 6.34877 25.5611 6.25 25.3125 6.25ZM20.9463 11.6288L13.4462 18.5037C13.2681 18.6669 13.0339 18.7549 12.7924 18.7496C12.5509 18.7442 12.3207 18.6459 12.15 18.475L9.025 15.35C8.93289 15.2642 8.85901 15.1607 8.80777 15.0457C8.75653 14.9307 8.72898 14.8065 8.72676 14.6807C8.72454 14.5548 8.7477 14.4297 8.79485 14.313C8.842 14.1963 8.91218 14.0902 9.0012 14.0012C9.09023 13.9122 9.19627 13.842 9.313 13.7948C9.42974 13.7477 9.55477 13.7245 9.68065 13.7268C9.80653 13.729 9.93067 13.7565 10.0457 13.8078C10.1607 13.859 10.2642 13.9329 10.35 14.025L12.8412 16.515L19.6788 10.2462C19.8621 10.0782 20.1047 9.9898 20.3532 10.0006C20.6016 10.0114 20.8357 10.1204 21.0037 10.3038C21.1718 10.4871 21.2602 10.7297 21.2494 10.9782C21.2386 11.2266 21.1296 11.4607 20.9463 11.6288Z" fill="black"/>
</svg>
