<svg width="20" height="20" viewBox="0 0 20 20" fill="none" xmlns="http://www.w3.org/2000/svg">
<g clip-path="url(#clip0_199_115)">
<path d="M0.625 10C0.625 14.0937 3.25 17.5625 6.875 18.8437V1.15625C3.25 2.4375 0.625 5.90625 0.625 10ZM19.375 10C19.375 5.90625 16.7812 2.4375 13.125 1.15625V18.8437C16.7812 17.5625 19.375 14.0937 19.375 10Z" fill="#377402"/>
<path d="M6.875 18.8438C7.84375 19.1875 8.90625 19.375 10 19.375C11.0938 19.375 12.1562 19.1875 13.125 18.8438V1.15625C12.1562 0.8125 11.0938 0.625 10 0.625C8.90625 0.625 7.84375 0.8125 6.875 1.15625V18.8438Z" fill="#F9F9F9"/>
</g>
<defs>
<clipPath id="clip0_199_115">
<rect width="20" height="20" fill="white"/>
</clipPath>
</defs>
</svg>
