<svg width="20" height="20" viewBox="0 0 20 20" fill="none" xmlns="http://www.w3.org/2000/svg">
<g clip-path="url(#clip0_199_139)">
<path d="M19.0312 12.5C19.25 11.7188 19.375 10.875 19.375 10C19.375 9.125 19.25 8.28125 19.0312 7.5H9.90625L4.625 2.3125C3.375 3.1875 2.34375 4.375 1.625 5.75L5.9375 10L1.65625 14.25C2.34375 15.625 3.375 16.8125 4.65625 17.6875L9.90625 12.5H19.0312Z" fill="#377402"/>
<path d="M1.09375 7.03125C0.78125 7.96875 0.625 8.96875 0.625 10C0.625 11.0312 0.78125 12.0312 1.09375 12.9688L4.09375 10L1.09375 7.03125Z" fill="#3E4347"/>
<path d="M5.71875 18.3438C7 19 8.46875 19.375 10 19.375C13.8438 19.375 17.1563 17.0625 18.5938 13.7188H10.4375L5.71875 18.3438Z" fill="#428BC1"/>
<path d="M18.5938 6.28125C17.1563 2.9375 13.8438 0.625 10 0.625C8.46875 0.625 7 1 5.71875 1.65625L10.4375 6.28125H18.5938Z" fill="#ED4C5C"/>
<path d="M18.9062 7.09375C18.8125 6.8125 18.7187 6.53125 18.5937 6.28125H10.4375L5.71875 1.65625C5.5 1.75 5.3125 1.875 5.09375 2C4.9375 2.09375 4.78125 2.21875 4.625 2.3125L9.90625 7.5H19.0312C19 7.375 18.9687 7.21875 18.9062 7.09375Z" fill="white"/>
<path d="M1.65625 5.75C1.625 5.8125 1.59375 5.875 1.5625 5.96875C1.40625 6.3125 1.25 6.65625 1.125 7.03125L4.125 10L1.125 12.9688C1.25 13.3438 1.375 13.6875 1.5625 14.0313C1.59375 14.0938 1.625 14.1562 1.65625 14.25L5.9375 10L1.65625 5.75Z" fill="#FFCE31"/>
<path d="M9.90625 12.5L4.625 17.6875C4.71875 17.75 4.84375 17.8437 4.9375 17.9062C5.1875 18.0625 5.4375 18.2188 5.71875 18.3438L10.4375 13.7188H18.5937C18.7187 13.4063 18.8437 13.0937 18.9687 12.75C19 12.6562 19 12.5938 19.0312 12.5H9.90625Z" fill="white"/>
</g>
<defs>
<clipPath id="clip0_199_139">
<rect width="20" height="20" fill="white"/>
</clipPath>
</defs>
</svg>
